<svg width="256" height="256" viewBox="0 0 256 256" xmlns="http://www.w3.org/2000/svg">
  <!-- 杯子阴影 -->
  <ellipse cx="130" cy="235" rx="35" ry="8" fill="#8B4513" opacity="0.3"/>
  
  <!-- 杯子主体 -->
  <path d="M 80 120 L 85 220 Q 85 230, 95 230 L 160 230 Q 170 230, 170 220 L 175 120 Z" 
        fill="url(#cupGradient)" stroke="#8B4513" stroke-width="3"/>
  
  <!-- 杯口 -->
  <ellipse cx="127.5" cy="120" rx="47.5" ry="8" fill="#F5DEB3" stroke="#8B4513" stroke-width="2"/>
  
  <!-- 咖啡液面 -->
  <ellipse cx="127.5" cy="125" rx="42" ry="6" fill="url(#coffeeGradient)"/>
  
  <!-- 咖啡泡沫 -->
  <ellipse cx="120" cy="125" rx="4" ry="2" fill="#FFFACD" opacity="0.8"/>
  <ellipse cx="135" cy="123" rx="3" ry="2" fill="#FFFACD" opacity="0.8"/>
  <ellipse cx="127" cy="128" rx="2" ry="1" fill="#FFFACD" opacity="0.6"/>
  
  <!-- 杯子把手 -->
  <path d="M 175 140 Q 200 140, 200 165 Q 200 190, 175 190" 
        fill="none" stroke="url(#handleGradient)" stroke-width="8"/>
  
  <!-- 咖啡蒸汽 -->
  <g opacity="0.6">
    <path d="M 110 110 Q 115 90, 110 70 Q 105 50, 110 30" 
          stroke="#F5F5F5" stroke-width="3" fill="none"/>
    <path d="M 128 115 Q 133 95, 128 75 Q 123 55, 128 35" 
          stroke="#F5F5F5" stroke-width="3" fill="none"/>
    <path d="M 145 110 Q 150 90, 145 70 Q 140 50, 145 30" 
          stroke="#F5F5F5" stroke-width="3" fill="none"/>
  </g>
  
  <!-- 杯子装饰图案 -->
  <g transform="translate(127.5,175)">
    <!-- 咖啡豆图案 -->
    <ellipse cx="0" cy="0" rx="12" ry="8" fill="#8B4513"/>
    <line x1="0" y1="-6" x2="0" y2="6" stroke="#DEB887" stroke-width="2"/>
    
    <!-- 小咖啡豆 -->
    <ellipse cx="-20" cy="-10" rx="6" ry="4" fill="#8B4513"/>
    <line x1="-20" y1="-13" x2="-20" y2="-7" stroke="#DEB887" stroke-width="1"/>
    
    <ellipse cx="20" cy="-10" rx="6" ry="4" fill="#8B4513"/>
    <line x1="20" y1="-13" x2="20" y2="-7" stroke="#DEB887" stroke-width="1"/>
  </g>
  
  <!-- 杯底高光 -->
  <ellipse cx="115" cy="215" rx="15" ry="5" fill="#FFFACD" opacity="0.4"/>
  
  <!-- 定义渐变 -->
  <defs>
    <linearGradient id="cupGradient" x1="0%" y1="0%" x2="100%" y2="0%">
      <stop offset="0%" stop-color="#F5DEB3"/>
      <stop offset="50%" stop-color="#DEB887"/>
      <stop offset="100%" stop-color="#D2B48C"/>
    </linearGradient>
    
    <radialGradient id="coffeeGradient" cx="0.3" cy="0.3">
      <stop offset="0%" stop-color="#8B4513"/>
      <stop offset="70%" stop-color="#654321"/>
      <stop offset="100%" stop-color="#3E2723"/>
    </radialGradient>
    
    <linearGradient id="handleGradient" x1="0%" y1="0%" x2="100%" y2="100%">
      <stop offset="0%" stop-color="#DEB887"/>
      <stop offset="50%" stop-color="#D2B48C"/>
      <stop offset="100%" stop-color="#BC9A6A"/>
    </linearGradient>
  </defs>
</svg>